<svg xmlns="http://www.w3.org/2000/svg" viewBox="0 0 48 48" width="48px" height="48px"><path fill="#546e7a" d="M33,39v3c0,0.55-0.45,1-1,1H16c-0.55,0-1-0.45-1-1v-3H33z"/><path fill="#546e7a" d="M4.258,34.182l-0.985,3.47c-0.151,0.531,0.158,1.084,0.689,1.235L6.7,39.664 c0.531,0.151,1.084-0.158,1.235-0.689l0.985-3.47L4.258,34.182z"/><path fill="#546e7a" d="M39.08,35.505l0.985,3.47c0.151,0.531,0.704,0.84,1.235,0.689l2.738-0.777 c0.531-0.151,0.84-0.704,0.689-1.235l-0.985-3.47"/><path fill="#37474f" d="M44.07,34.27l-5.1,1.45c-0.53,0.15-1.09-0.16-1.24-0.7L35,25v12c0,1.1-0.9,2-2,2H15 c-1.1,0-2-0.9-2-2V25l-2.73,10.02c-0.15,0.54-0.71,0.85-1.24,0.7l-5.1-1.45c-0.52-0.15-0.83-0.68-0.7-1.21l3.28-13.22L13,22h22 l6.66-1.48l3.11,12.54C44.9,33.59,44.59,34.12,44.07,34.27z"/><path fill="#42a5f5" d="M41.66,20.52L35,22H13l-6.49-2.16l1.3-5.26c0.75-2.87,2.85-5.18,5.64-6.2L19,6.36L24,6l5,0.36 l5.55,2.02c2.79,1.02,4.89,3.33,5.64,6.2L41.66,20.52z"/><path fill="#546e7a" d="M16.555,36.832l-1.109-1.664C15.543,35.1,18,33.353,18,29h2C20,34.472,16.695,36.738,16.555,36.832z"/><path fill="#546e7a" d="M31.445,36.832C31.305,36.738,28,34.472,28,29h2c0,4.414,2.529,6.151,2.555,6.168L31.445,36.832z"/><path fill="#37474f" d="M18,7.558V5c0-0.552,0.448-1,1-1h10c0.552,0,1,0.448,1,1v2.558C30,8.419,18,8.419,18,7.558z"/><polygon fill="#cfd8dc" points="41.9,21.49 35.11,23 12.84,23 6.27,20.81 6.75,18.86 13.16,21 34.89,21 41.42,19.55"/><path fill="#1976d2" d="M28.36,6.46L24,8l-4.36-1.54C18.66,6.18,18,5.22,18,5v2.56c0,0.86,0.66,1.62,1.64,1.9L24,11 l4.36-1.54C29.34,9.18,30,8.42,30,7.56V5C30,5.22,29.34,6.18,28.36,6.46z"/><rect width="2" height="26" x="23" y="13" fill="#546e7a"/><rect width="2" height="4" x="23" y="39" fill="#455a64"/><path fill="#cfd8dc" d="M26,12c0,1.105-0.895,2-2,2s-2-0.895-2-2s2-4,2-4S26,10.895,26,12z"/></svg>