<svg xmlns="http://www.w3.org/2000/svg" viewBox="0 0 48 48" width="48px" height="48px"><path fill="#0D47A1" d="M33 17L43 17 24 42z"/><path fill="#84FFFF" d="M5 17L15 5 15 17z"/><path fill="#1976D2" d="M33 5L33 17 43 17z"/><path fill="#0091EA" d="M15 17L23.996 42.149 33 17zM15 5L24 5 15 17zM24 5L33 17 33 5z"/><path fill="#00B0FF" d="M33 17L15 17 24 5zM33 17L38 15 43 17 38 19z"/><g><path fill="#00E5FF" d="M15 17L5 17 23.996 42.149zM15 17L24 15 33 17 24 19z"/></g><path fill="#E0F7FA" d="M5 17L10 15 15 17 10 19z"/></svg>