<?xml version="1.0" encoding="UTF-8"?>
<svg xmlns="http://www.w3.org/2000/svg" xmlns:xlink="http://www.w3.org/1999/xlink" width="48pt" height="48pt" viewBox="0 0 48 48" version="1.1">
<g id="surface1174919">
<path style=" stroke:none;fill-rule:nonzero;fill:rgb(14.901961%,19.607843%,21.960784%);fill-opacity:1;" d="M 24 4 C 22.34375 4 21 5.34375 21 7 C 21 8.65625 22.34375 10 24 10 C 25.65625 10 27 8.65625 27 7 C 27 5.34375 25.65625 4 24 4 Z M 24 4 "/>
<path style=" stroke:none;fill-rule:nonzero;fill:rgb(86.666667%,17.254902%,0%);fill-opacity:1;" d="M 24 27 C 23.992188 27 23.988281 27 23.980469 27 C 23.976562 27 23.96875 27 23.964844 27 L 23.964844 27.003906 C 18.246094 27.007812 9.746094 28.445312 8 30 L 8 37 C 8.03125 39.109375 8.445312 41.003906 8.871094 41.671875 C 9.917969 43.304688 10.894531 44 12.140625 44 C 12.996094 44 13.863281 43.664062 14.964844 43.238281 C 16.820312 42.523438 19.816406 42 23.964844 42 L 24 42 C 28.148438 42 31.144531 42.523438 33 43.238281 C 34.101562 43.664062 34.96875 44 35.824219 44 C 37.070312 44 38.046875 43.304688 39.089844 41.671875 C 39.519531 41.003906 39.96875 39.109375 40 37 L 40 30 C 38.253906 28.445312 29.71875 27.007812 24 27 Z M 24 27 "/>
<path style=" stroke:none;fill-rule:nonzero;fill:rgb(100%,34.117647%,13.333333%);fill-opacity:1;" d="M 35.824219 42 C 35.339844 42 34.625 41.722656 33.71875 41.375 C 31.394531 40.476562 28.03125 40 23.964844 40 C 19.933594 40 16.570312 40.476562 14.242188 41.375 C 13.339844 41.722656 12.625 42 12.140625 42 C 11 42 9.492188 42 8.601562 40.609375 C 8.414062 40.269531 8.027344 38.808594 8 37 L 8 36.957031 L 8 37 C 8.03125 39.109375 8.445312 41.003906 8.871094 41.671875 C 9.917969 43.304688 10.894531 44 12.140625 44 C 12.996094 44 13.863281 43.664062 14.964844 43.238281 C 16.820312 42.523438 19.816406 42 23.964844 42 L 24 42 C 28.148438 42 31.144531 42.523438 33 43.238281 C 34.101562 43.664062 34.96875 44 35.824219 44 C 37.070312 44 38.046875 43.304688 39.089844 41.671875 C 39.472656 41.078125 39.867188 39.503906 39.972656 37.679688 C 39.875 39.191406 39.5625 40.34375 39.40625 40.625 C 38.507812 42.03125 37 42 35.824219 42 Z M 42 32 L 42 23 C 42 13.609375 34.390625 7 25 7 L 23 7 C 13.609375 7 6 13.609375 6 23 L 6 32 C 6 32 13 28 24 28 C 35 28 42 32 42 32 Z M 42 32 "/>
<path style=" stroke:none;fill-rule:nonzero;fill:rgb(86.666667%,17.254902%,0%);fill-opacity:1;" d="M 34.992188 29.390625 L 35.007812 28.996094 L 35.023438 28.5625 C 35.207031 24.109375 35.65625 13.175781 28.304688 7.285156 C 27.234375 7.101562 26.132812 7 25 7 L 23 7 C 21.875 7 20.777344 7.101562 19.710938 7.285156 C 12.484375 13.109375 12.832031 23.933594 12.976562 28.347656 L 12.992188 28.972656 L 13.003906 29.390625 C 15.921875 28.628906 19.640625 28 24 28 C 28.359375 28 32.074219 28.628906 34.992188 29.390625 Z M 34.992188 29.390625 "/>
<path style=" stroke:none;fill-rule:nonzero;fill:rgb(100%,100%,100%);fill-opacity:1;" d="M 33.007812 28.921875 C 33.175781 24.570312 34.054688 11.460938 24 7 C 13.972656 11.449219 14.878906 24.613281 14.992188 28.921875 C 17.125 28.476562 19.59375 28.140625 22.335938 28.039062 C 22.863281 28.015625 23.410156 28 24 28 C 24.589844 28 25.136719 28.015625 25.664062 28.035156 C 28.40625 28.140625 30.878906 28.476562 33.007812 28.921875 Z M 33.007812 28.921875 "/>
</g>
</svg>
