<svg xmlns="http://www.w3.org/2000/svg" viewBox="0 0 80 80" width="16px" height="16px"><path fill="#c62828" d="M61,22.2h-4C57,13.3,49.4,6,40,6s-17,7.3-17,16.2h-4C19,11.1,28.4,2,40,2C51.6,2,61,11.1,61,22.2z"/><path fill="#ffeea3" d="M17.5,21.5V18c0-1.1,0.4-1.5,1.5-1.5h6c1.1,0,1.5,0.4,1.5,1.5v3.5H17.5z"/><path fill="#ba9b48" d="M25,17c0.8,0,1,0.2,1,1v3h-8v-3c0-0.8,0.2-1,1-1H25 M25,16h-6c-1.1,0-2,0.4-2,2v4h10v-4 C27,16.4,26.1,16,25,16L25,16z"/><path fill="#ffeea3" d="M53.5,21.5V18c0-1.1,0.4-1.5,1.5-1.5h6c1.1,0,1.5,0.4,1.5,1.5v3.5H53.5z"/><path fill="#ba9b48" d="M61,17c0.8,0,1,0.2,1,1v3h-8v-3c0-0.8,0.2-1,1-1H61 M61,16h-6c-1.1,0-2,0.4-2,2v4h10v-4 C63,16.4,62.1,16,61,16L61,16z"/><path fill="#f88f8f" d="M8,77.5c-2.4,0-3.3-2.8-3.5-3.6c-0.7-2.9-2-9.7-2-22.8c0-15.9,3.6-23.1,5.7-27.4l0.2-0.4 c0.3-0.6,1.6-2.7,4.1-2.7h54.9c2.6,0,3.8,2.1,4.1,2.7l0.2,0.4c2.1,4.3,5.7,11.5,5.7,27.4c0,11-0.6,17.7-2,21.8 c-1.1,3.3-2.1,4.7-3.5,4.7L8,77.5L8,77.5z"/><path fill="#c74343" d="M67.4,21c2.3,0,3.4,1.9,3.7,2.4l0.2,0.4C73.4,28.1,77,35.2,77,51c0,10.9-0.6,17.6-1.9,21.7 c-1,3-1.9,4.3-3.1,4.3H8c-2,0-2.8-2.5-3-3.3C4.2,70.9,3,64.2,3,51c0-15.8,3.6-22.9,5.7-27.2l0.2-0.4c0.3-0.6,1.4-2.4,3.7-2.4H67.4 M67.4,20H12.6c-2.6,0-4,1.9-4.6,3c-2.2,4.4-6,11.5-6,28c0,11,0.9,18.7,2,23c0.5,1.8,1.7,4,4,4h64c0,0,0,0,0,0c1.9,0,3-2,4-5 c1.4-4.2,2-11,2-22c0-16.5-3.8-23.6-6-28C71.5,21.9,70,20,67.4,20L67.4,20z"/><path fill="#f88f8f" d="M12.5 39.7L12.5 20.5 67.5 20.5 67.5 39.7 40 54.4z"/><path fill="#c74343" d="M67,21v18.4L40,53.9L13,39.4V21H67 M68,20H12v20l28,15l28-15V20L68,20z"/><g><path fill="#ffeea3" d="M31.8,62.5c-1.2,0-2.3-1-2.3-2.3V43.8c0-1.2,1-2.3,2.3-2.3h16.5c1.2,0,2.3,1,2.3,2.3v16.5 c0,1.2-1,2.3-2.3,2.3H31.8z"/><path fill="#ba9b48" d="M48.3,42c1,0,1.8,0.8,1.8,1.8v16.5c0,1-0.8,1.8-1.8,1.8H31.8c-1,0-1.8-0.8-1.8-1.8V43.8 c0-1,0.8-1.8,1.8-1.8H48.3 M48.3,41H31.8c-1.5,0-2.8,1.2-2.8,2.8v16.5c0,1.5,1.2,2.8,2.8,2.8h16.5c1.5,0,2.8-1.2,2.8-2.8V43.8 C51,42.2,49.8,41,48.3,41L48.3,41z"/></g><g><path fill="#ffeea3" d="M33.4,59.5c-0.5,0-0.9-0.4-0.9-0.9V45.4c0-0.5,0.4-0.9,0.9-0.9h13.2c0.5,0,0.9,0.4,0.9,0.9v13.2 c0,0.5-0.4,0.9-0.9,0.9C46.6,59.5,33.4,59.5,33.4,59.5z"/><path fill="#ba9b48" d="M46.6,45c0.2,0,0.4,0.2,0.4,0.4v13.2c0,0.2-0.2,0.4-0.4,0.4H33.4c-0.2,0-0.4-0.2-0.4-0.4V45.4 c0-0.2,0.2-0.4,0.4-0.4H46.6 M46.6,44H33.4c-0.8,0-1.4,0.6-1.4,1.4v13.2c0,0.8,0.6,1.4,1.4,1.4h13.2c0.8,0,1.4-0.6,1.4-1.4V45.4 C48,44.6,47.4,44,46.6,44L46.6,44z"/></g><path fill="#ea8182" d="M39.9,74c-13.2,0-27.4-3.1-36.1-7.3c0.3,2.5,0.5,4.5,0.9,6.1C5.2,74.6,5.8,77,8,77l64,0 c1.3-0.1,2.2-1.8,3.1-4.8c0.5-1.4,0.8-3.2,1.1-5.3C65.9,71.6,53.1,74,39.9,74z"/></svg>