<?xml version="1.0" encoding="UTF-8"?>
<svg xmlns="http://www.w3.org/2000/svg" xmlns:xlink="http://www.w3.org/1999/xlink" width="64pt" height="64pt" viewBox="0 0 64 64" version="1.1">
<defs>
<linearGradient id="linear0" gradientUnits="userSpaceOnUse" x1="126.3125" y1="119.59375" x2="126.3125" y2="143.35125" gradientTransform="matrix(0.372093,0,0,0.372093,0,0)">
<stop offset="0" style="stop-color:rgb(54.117647%,70.588235%,100%);stop-opacity:1;"/>
<stop offset="1" style="stop-color:rgb(89.411765%,57.254902%,100%);stop-opacity:1;"/>
</linearGradient>
<linearGradient id="linear1" gradientUnits="userSpaceOnUse" x1="77.9375" y1="119.59375" x2="77.9375" y2="143.35125" gradientTransform="matrix(0.372093,0,0,0.372093,0,0)">
<stop offset="0" style="stop-color:rgb(54.117647%,70.588235%,100%);stop-opacity:1;"/>
<stop offset="1" style="stop-color:rgb(89.411765%,57.254902%,100%);stop-opacity:1;"/>
</linearGradient>
<linearGradient id="linear2" gradientUnits="userSpaceOnUse" x1="86" y1="26.875" x2="86" y2="145.57381" gradientTransform="matrix(0.372093,0,0,0.372093,0,0)">
<stop offset="0" style="stop-color:rgb(10.196078%,42.745098%,100%);stop-opacity:1;"/>
<stop offset="1" style="stop-color:rgb(78.431373%,13.333333%,100%);stop-opacity:1;"/>
</linearGradient>
<linearGradient id="linear3" gradientUnits="userSpaceOnUse" x1="104.8125" y1="26.875" x2="104.8125" y2="145.57381" gradientTransform="matrix(0.372093,0,0,0.372093,0,0)">
<stop offset="0" style="stop-color:rgb(10.196078%,42.745098%,100%);stop-opacity:1;"/>
<stop offset="1" style="stop-color:rgb(78.431373%,13.333333%,100%);stop-opacity:1;"/>
</linearGradient>
<linearGradient id="linear4" gradientUnits="userSpaceOnUse" x1="104.8125" y1="26.875" x2="104.8125" y2="145.57381" gradientTransform="matrix(0.372093,0,0,0.372093,0,0)">
<stop offset="0" style="stop-color:rgb(10.196078%,42.745098%,100%);stop-opacity:1;"/>
<stop offset="1" style="stop-color:rgb(78.431373%,13.333333%,100%);stop-opacity:1;"/>
</linearGradient>
<linearGradient id="linear5" gradientUnits="userSpaceOnUse" x1="102.125" y1="26.875" x2="102.125" y2="145.57381" gradientTransform="matrix(0.372093,0,0,0.372093,0,0)">
<stop offset="0" style="stop-color:rgb(10.196078%,42.745098%,100%);stop-opacity:1;"/>
<stop offset="1" style="stop-color:rgb(78.431373%,13.333333%,100%);stop-opacity:1;"/>
</linearGradient>
</defs>
<g id="surface11599234">
<path style=" stroke:none;fill-rule:nonzero;fill:url(#linear0);" d="M 47 45 C 44.789062 45 43 46.789062 43 49 C 43 51.210938 44.789062 53 47 53 C 49.210938 53 51 51.210938 51 49 C 51 46.789062 49.210938 45 47 45 Z M 47 45 "/>
<path style=" stroke:none;fill-rule:nonzero;fill:url(#linear1);" d="M 29 45 C 26.789062 45 25 46.789062 25 49 C 25 51.210938 26.789062 53 29 53 C 31.210938 53 33 51.210938 33 49 C 33 46.789062 31.210938 45 29 45 Z M 29 45 "/>
<path style=" stroke:none;fill-rule:nonzero;fill:url(#linear2);" d="M 55 19 L 47.941406 19 C 47.441406 14.507812 43.625 11 39 11 C 34.375 11 30.558594 14.507812 30.058594 19 L 21.800781 19 L 20.320312 12.339844 C 20.015625 10.960938 18.816406 10 17.40625 10 L 9 10 C 7.347656 10 6 11.347656 6 13 C 6 14.652344 7.347656 16 9 16 L 13 16 C 14.652344 16 16 14.652344 16 13 L 16 12 L 17.40625 12 C 17.871094 12 18.265625 12.316406 18.367188 12.769531 L 23.328125 35.085938 C 23.839844 37.390625 25.847656 39 28.207031 39 L 49.980469 39 C 52.203125 39 54.179688 37.507812 54.789062 35.371094 L 57.808594 24.8125 C 57.933594 24.367188 58 23.90625 58 23.4375 L 58 22 C 58 20.347656 56.652344 19 55 19 Z M 14 13 C 14 13.550781 13.550781 14 13 14 L 9 14 C 8.449219 14 8 13.550781 8 13 C 8 12.449219 8.449219 12 9 12 L 14 12 Z M 39 13 C 42.859375 13 46 16.140625 46 20 C 46 23.859375 42.859375 27 39 27 C 35.140625 27 32 23.859375 32 20 C 32 16.140625 35.140625 13 39 13 Z M 56 23.4375 C 56 23.71875 55.960938 23.996094 55.882812 24.265625 L 52.867188 34.824219 C 52.5 36.105469 51.3125 37 49.980469 37 L 28.207031 37 C 26.792969 37 25.589844 36.035156 25.28125 34.652344 L 22.246094 21 L 30.058594 21 C 30.558594 25.492188 34.375 29 39 29 C 43.625 29 47.441406 25.492188 47.941406 21 L 55 21 C 55.550781 21 56 21.449219 56 22 Z M 56 23.4375 "/>
<path style=" stroke:none;fill-rule:nonzero;fill:url(#linear3);" d="M 38 24 L 40 24 L 40 21 L 43 21 L 43 19 L 40 19 L 40 16 L 38 16 L 38 19 L 35 19 L 35 21 L 38 21 Z M 38 24 "/>
<path style=" stroke:none;fill-rule:nonzero;fill:url(#linear4);" d="M 30 33 L 48 33 L 48 35 L 30 35 Z M 30 33 "/>
<path style=" stroke:none;fill-rule:nonzero;fill:url(#linear5);" d="M 47 44 C 44.585938 44 42.566406 45.722656 42.101562 48 L 33.898438 48 C 33.433594 45.722656 31.414062 44 29 44 C 26.242188 44 24 46.242188 24 49 C 24 51.757812 26.242188 54 29 54 C 31.414062 54 33.433594 52.277344 33.898438 50 L 42.101562 50 C 42.566406 52.277344 44.585938 54 47 54 C 49.757812 54 52 51.757812 52 49 C 52 46.242188 49.757812 44 47 44 Z M 29 52 C 27.347656 52 26 50.652344 26 49 C 26 47.347656 27.347656 46 29 46 C 30.652344 46 32 47.347656 32 49 C 32 50.652344 30.652344 52 29 52 Z M 47 52 C 45.347656 52 44 50.652344 44 49 C 44 47.347656 45.347656 46 47 46 C 48.652344 46 50 47.347656 50 49 C 50 50.652344 48.652344 52 47 52 Z M 47 52 "/>
</g>
</svg>
