<svg xmlns="http://www.w3.org/2000/svg" viewBox="0 0 48 48" width="48px" height="48px"><path fill="#1a237e" d="M19,14h-7c0,0,0.5,3.4,3.2,4.8S19,14,19,14z"/><path fill="#3f51b5" d="M11.8,37.6c0,0-1.6,0.1-3.5-3.4c-1.9-3.5-3.2-6.3-3.2-6.3s-0.4-2.6,0.5-3.5c1.4-1.4,4.2,2.8,7.6-0.7 c0,0,2.8-2.8,2.1-6.2c-0.3-1.4-0.7-2.1,0.7-3.5c1.4-1.4,9-0.7,14.6-3.5c0,0,3.5-2.1,4.2-2.8c0.7-0.7,3.5-3.5,6.9,0 c2.9,2.9-2.1,9-4.2,11.1c-2.1,2.1-14.6,14.6-14.6,14.6S15.9,38.9,11.8,37.6z"/><path fill="#263238" d="M12.6,37.7c0.1,0,0.3,0,0.4,0l9.1-7.8L20.8,16l7.6-2.1l-0.4-2.5c-4,1.3-8.4,1.4-10.7,1.9 C17.8,22.3,13.4,35.1,12.6,37.7z"/><path fill="#b0bec5" d="M43,7.7v1.4c0,0-0.7,7.6-5.6,12.5c-6.3,6.3-13.8,13.8-14.6,14.6c-2.8,2.8-6.9,5.6-6.9,5.6 c-0.4,0.4-1,0.4-1.4,0l-2.8-4.2c2.1-0.7,4.2-2.8,9-7.6c0,0,12.5-9.7,14.6-11.8c0,0,6.2-6.2,6.2-10.4H43z"/><path fill="#2196f3" d="M27.4 16.9c.4.9 2 .8 2.8 0 0 0 8.3-7.5 6.9-10.7 0 0 0 0 0 0-.3.1-.6.2-.8.3 0 0 0 0 0 0-.3.1-.5.3-.7.4 0 0 0 0 0 0-.4.3-.7.6-.9.8-.7.7-4.2 2.8-4.2 2.8-1.1.6-2.3 1-3.5 1.3C27 13.7 27.1 16.1 27.4 16.9zM14.9 30c-2.2.3-6-2.1-8-1.5-.6.2-.7 1.1-.7 1.7.5 1.1 1.2 2.4 2 4 1.9 3.5 3.5 3.4 3.5 3.4.3-.1.7-.3 1-.5C13.3 35.7 14.1 33.1 14.9 30zM20 15c-.6 0-1-.4-1-1v-1.4c0-.6.4-1 1-1s1 .4 1 1V14C21 14.6 20.6 15 20 15zM24 14.4c-.6 0-1-.4-1-1V12c0-.6.4-1 1-1s1 .4 1 1v1.4C25 13.9 24.6 14.4 24 14.4z"/><path fill="#607d8b" d="M27.7,27.1c0.4,0.4,0.4,1,0,1.4l-7.6,7.6c-0.4,0.4-1,0.4-1.4,0c-0.4-0.4-0.4-1,0-1.4l7.6-7.6 C26.7,26.8,27.4,26.8,27.7,27.1z"/></svg>